<?xml version="1.0" encoding="UTF-8"?><svg id="_レイヤー_1" xmlns="http://www.w3.org/2000/svg" viewBox="0 0 305.68 113.62"><defs><style>.cls-1{fill:#333;}.cls-2{fill:#0a0aff;}</style></defs><g><path class="cls-1" d="m293.47,39.5c-5.41-5.56-11.79-8.34-19.16-8.34s-13.44,2.62-18.7,7.88c-5.12,5.12-7.67,11.35-7.67,18.71s2.63,13.9,7.89,19.6c5.41,5.41,11.79,8.11,19.16,8.11s13.67-2.62,18.92-7.89c5.26-5.26,7.89-11.49,7.89-18.7s-2.78-13.97-8.34-19.38Zm-6.43,31.11c-3.36,3.36-7.39,5.04-12.09,5.04s-8.77-1.72-12.23-5.18c-3.36-3.64-5.03-7.81-5.03-12.51s1.63-8.68,4.89-11.94,7.33-5.04,11.93-5.04,8.77,1.77,12.23,5.33c3.55,3.44,5.33,7.58,5.33,12.37s-1.68,8.58-5.04,11.93Z"/><g><path class="cls-1" d="m44.12,2.77c-3.23-1.84-7.13-2.77-11.71-2.77-7.03,0-12.84,2.2-17.46,6.6-4.61,4.36-6.92,9.86-6.92,16.5,0,4.97,1.17,9.1,3.51,12.4,2.45,3.3,6.76,6.78,12.93,10.43,2.7,1.6,4.92,3.03,6.68,4.31,1.76,1.28,3.08,2.43,3.97,3.46,1.77,1.99,2.66,4.42,2.66,7.29,0,4.19-1.22,7.42-3.65,9.69-2.43,2.27-5.79,3.41-10.09,3.41-3.87,0-7.01-.83-9.42-2.5-1.48-1.02-2.97-2.56-4.49-4.62-1.78-2.42-5.14-3.02-7.63-1.33l-.07.05c-2.6,1.76-3.23,5.33-1.4,7.87.74,1.03,1.49,1.98,2.25,2.85,1.84,2.11,3.83,3.82,5.96,5.14,4.22,2.63,9.38,3.94,15.49,3.94,7.56,0,13.64-2.2,18.26-6.6,4.68-4.4,7.03-10.15,7.03-17.24,0-5.46-1.21-9.88-3.62-13.25-2.38-3.33-7.1-7.06-14.16-11.18-2.38-1.42-4.36-2.71-5.93-3.89-1.58-1.17-2.78-2.22-3.59-3.14-1.63-1.95-2.45-4.28-2.45-6.97,0-3.37,1.19-6.17,3.57-8.41,2.38-2.24,5.38-3.35,8.99-3.35s6.87,1.45,9.87,4.36c2.15,2.09,5.57,2.12,7.74.05,2.24-2.14,2.31-5.7.16-7.92-2.2-2.26-4.36-3.98-6.48-5.17Z"/><path class="cls-2" d="m68.34,25.65c1.74,0,3.23-.62,4.47-1.86s1.86-2.71,1.86-4.42-.66-3.3-1.97-4.58c-1.28-1.31-2.79-1.97-4.52-1.97s-3.18.62-4.42,1.86-1.81,2.68-1.81,4.42.62,3.28,1.86,4.63c1.28,1.28,2.79,1.92,4.52,1.92Z"/><path class="cls-1" d="m65.64,33.74c-2.95,0-5.43,2.2-5.79,5.12l-4.74,38.46c-.43,3.48,2.29,6.55,5.79,6.55,2.95,0,5.43-2.2,5.79-5.12l4.74-38.46c.43-3.48-2.29-6.55-5.79-6.55Z"/><path class="cls-1" d="m134.01,32.52c-5.27,0-10.21,2.22-14.83,6.67-.61.59-1.62.41-2.02-.34-1.15-2.19-2.42-3.73-3.8-4.62-1.7-1.17-4.13-1.76-7.29-1.76-4.19,0-7.98,1.28-11.36,3.84-.9.68-2.18-.02-2.05-1.15.09-.76-.51-1.42-1.27-1.42h-9.58c-.64,0-1.19.48-1.27,1.12l-5.86,47.58c-.09.76.5,1.43,1.27,1.43h9.19c.64,0,1.19-.48,1.27-1.12l3.32-26.82c1.1-9.05,4.91-13.57,11.44-13.57,4.51,0,6.76,2.08,6.76,6.23,0,.99-.16,2.84-.48,5.54l-3.5,28.32c-.09.76.5,1.43,1.27,1.43h9.19c.65,0,1.19-.48,1.27-1.12l3.27-26.87c.32-2.38.77-4.43,1.36-6.15.59-1.72,1.33-3.12,2.24-4.2.91-1.08,2-1.88,3.27-2.4,1.28-.51,2.79-.77,4.52-.77,4.4,0,6.6,2.18,6.6,6.55,0,1.28-.16,3.26-.48,5.96l-3.44,27.57c-.1.76.5,1.43,1.27,1.43h9.19c.64,0,1.19-.48,1.27-1.12l3.27-26.5c.28-2.45.51-4.51.67-6.17.16-1.67.24-2.96.24-3.89,0-9.12-4.97-13.68-14.9-13.68Z"/><path class="cls-1" d="m240.7,35.56c-3.09,0-6.15,1.17-9.19,3.5-.77.59-1.87-.05-1.75-1.01.08-.66-.43-1.24-1.09-1.24h-8.82c-.56,0-1.03.42-1.09.97l-5.52,44.86c-.08.66.43,1.24,1.09,1.24h8.82c.56,0,1.03-.41,1.09-.97l2.78-22.52c.3-2.6.71-4.83,1.22-6.7.52-1.87,1.17-3.39,1.95-4.57.78-1.18,1.71-2.05,2.77-2.6,1.07-.55,2.3-.82,3.7-.82,1.76,0,3.51.65,5.27,1.94.48.35,1.15.25,1.51-.22l5.71-7.37c.38-.48.28-1.18-.2-1.56-2.5-1.95-5.25-2.93-8.24-2.93Z"/><path class="cls-1" d="m168.95,37.97c-.6-2.64-2.93-4.65-5.75-4.63-3.01.02-5.51,2.37-5.78,5.43l-6,68.35c-.31,3.51,2.42,6.52,5.88,6.49,3.01-.02,5.51-2.37,5.78-5.43l2.85-32.45c.35.38.71.75,1.09,1.13,24.71,23.01,59.29-14.1,34.3-36.94-11.02-10.36-23.73-8.86-32.37-1.95Zm27.3,31.52c-14.51,15.69-38.11-7.11-23.87-22.43,14.23-15.61,38.42,7.21,23.87,22.43Z"/></g></g><g><path class="cls-1" d="m38.73,97.45c-.36-.23-1.03-.58-1.91-.58-1.08,0-1.66.67-1.66,1.46,0,.85.56,1.24,1.82,1.78,1.58.65,2.5,1.48,2.5,2.95,0,1.75-1.33,2.9-3.48,2.9-.97,0-1.91-.27-2.57-.67l.41-1.15c.52.31,1.37.67,2.21.67,1.31,0,1.96-.7,1.96-1.58s-.52-1.42-1.82-1.94c-1.66-.67-2.5-1.58-2.5-2.77,0-1.53,1.22-2.79,3.21-2.79.94,0,1.73.27,2.25.59l-.43,1.13Z"/><path class="cls-1" d="m53.45,94.22c-.58,0-.97-.45-.97-1.03s.41-1.01.99-1.01.97.45.97,1.01c0,.63-.41,1.03-.99,1.03Zm.76,11.54h-1.49v-9.81h1.49v9.81Z"/><path class="cls-1" d="m81.48,105.76h-1.48v-5.67c0-1.91-.68-3.13-2.16-3.13-1.21,0-2.3,1.13-2.3,2.63v6.18h-1.48v-6.05c0-1.57-.67-2.75-2.05-2.75-1.28,0-2.41,1.26-2.41,2.79v6.01h-1.48v-7.29c0-1.01-.04-1.73-.07-2.54h1.31l.09,1.58h.05c.54-.96,1.44-1.8,2.99-1.8,1.28,0,2.27.79,2.68,1.96h.04c.65-1.17,1.64-1.96,3.15-1.96,1.21,0,3.11.77,3.11,4.14v5.91Z"/><path class="cls-1" d="m96.73,97.61c.68-1.21,1.82-1.89,3.35-1.89,2.32,0,4,2,4,5.01,0,3.6-2.11,5.26-4.27,5.26-1.3,0-2.38-.59-2.95-1.57h-.04v5.37h-1.49v-10.68c0-1.28-.04-2.27-.07-3.17h1.35l.09,1.67h.04Zm.09,4.25c0,1.91,1.42,2.92,2.75,2.92,1.93,0,2.99-1.66,2.99-4,0-2.04-1.03-3.83-2.93-3.83-1.67,0-2.81,1.62-2.81,3.04v1.87Z"/><path class="cls-1" d="m118.76,105.76h-1.49v-14.4h1.49v14.4Z"/><path class="cls-1" d="m139.62,105.35c-.56.27-1.58.61-3.08.61-2.86,0-4.57-2.02-4.57-4.95s1.73-5.29,4.38-5.29c3.02,0,3.8,2.77,3.8,4.48,0,.34-.02.59-.04.83h-6.68c.02,2.72,1.57,3.75,3.33,3.75,1.22,0,1.96-.25,2.58-.5l.29,1.08Zm-.95-5.44c.02-1.33-.54-3.06-2.47-3.06-1.8,0-2.59,1.71-2.74,3.06h5.2Z"/><path class="cls-1" d="m173.86,97.61c.68-1.21,1.82-1.89,3.35-1.89,2.32,0,4,2,4,5.01,0,3.6-2.11,5.26-4.27,5.26-1.3,0-2.38-.59-2.95-1.57h-.04v5.37h-1.49v-10.68c0-1.28-.04-2.27-.07-3.17h1.35l.09,1.67h.04Zm.09,4.25c0,1.91,1.42,2.92,2.75,2.92,1.93,0,2.99-1.66,2.99-4,0-2.04-1.03-3.83-2.93-3.83-1.67,0-2.81,1.62-2.81,3.04v1.87Z"/><path class="cls-1" d="m198.88,97.21c-.16-.02-.32-.04-.54-.04-1.62,0-2.45,1.6-2.45,3.26v5.33h-1.49v-6.88c0-1.04-.02-2-.07-2.93h1.31l.07,1.89h.05c.43-1.22,1.46-2.11,2.67-2.11.16,0,.29.04.45.05v1.42Z"/><path class="cls-1" d="m219.91,100.78c0,3.66-2.41,5.2-4.59,5.2-2.52,0-4.46-1.89-4.46-5.06,0-3.35,2.09-5.2,4.59-5.2,2.68,0,4.47,2.05,4.47,5.06Zm-4.52-3.89c-2.12,0-3.01,2.09-3.01,3.98,0,2.18,1.21,3.94,2.97,3.94s3.02-1.76,3.02-3.98c0-1.75-.85-3.94-2.99-3.94Z"/><path class="cls-1" d="m241.09,95.93c-.05.7-.09,1.49-.09,2.7v5.73c0,1.71-.04,5.64-4.68,5.64-1.12,0-2.34-.27-3.08-.77l.4-1.17c.63.38,1.58.74,2.75.74,1.8,0,3.12-.96,3.12-3.55v-1.17h-.04c-.5.92-1.55,1.67-3.04,1.67-2.34,0-4.01-2.07-4.01-4.83,0-3.4,2.12-5.2,4.25-5.2,1.67,0,2.56.9,2.97,1.69h.04l.07-1.48h1.35Zm-1.6,3.78c0-1.71-1.24-2.79-2.61-2.79-1.73,0-2.93,1.53-2.93,3.91,0,2.09,1.01,3.73,2.92,3.73,1.12,0,2.63-.85,2.63-2.88v-1.96Z"/><path class="cls-1" d="m259.38,97.21c-.16-.02-.32-.04-.54-.04-1.62,0-2.45,1.6-2.45,3.26v5.33h-1.49v-6.88c0-1.04-.02-2-.07-2.93h1.31l.07,1.89h.05c.43-1.22,1.46-2.11,2.67-2.11.16,0,.29.04.45.05v1.42Z"/><path class="cls-1" d="m278.49,103.42c0,.81.02,1.66.14,2.34h-1.37l-.14-1.26h-.05c-.5.77-1.51,1.48-2.9,1.48-1.87,0-2.86-1.37-2.86-2.79,0-2.36,2.05-3.64,5.69-3.62,0-.83,0-2.7-2.23-2.7-.85,0-1.73.23-2.39.7l-.36-1.03c.79-.52,1.89-.83,2.99-.83,2.77,0,3.49,1.96,3.49,3.91v3.8Zm-1.48-2.75c-1.85,0-4.18.27-4.18,2.34,0,1.26.79,1.82,1.69,1.82,1.46,0,2.48-1.12,2.48-2.3v-1.85Z"/><path class="cls-1" d="m305.68,105.76h-1.48v-5.67c0-1.91-.68-3.13-2.16-3.13-1.21,0-2.3,1.13-2.3,2.63v6.18h-1.48v-6.05c0-1.57-.67-2.75-2.05-2.75-1.28,0-2.41,1.26-2.41,2.79v6.01h-1.48v-7.29c0-1.01-.04-1.73-.07-2.54h1.31l.09,1.58h.05c.54-.96,1.44-1.8,2.99-1.8,1.28,0,2.27.79,2.68,1.96h.04c.65-1.17,1.64-1.96,3.15-1.96,1.21,0,3.12.77,3.12,4.14v5.91Z"/></g></svg>